<svg xmlns="http://www.w3.org/2000/svg" xmlns:xlink="http://www.w3.org/1999/xlink" width="1200" height="400" viewBox="0 0 1200 400">
  <defs>
    <clipPath id="clip-logo">
      <rect width="1200" height="400"/>
    </clipPath>
  </defs>
  <g id="logo" clip-path="url(#clip-logo)">
    <rect width="1200" height="400" fill="rgba(255,255,255,0)"/>
    <path id="路径_1" data-name="路径 1" d="M-509.2-54.4h146V6.4H-576v-312h66.8ZM-203.6,12q-45.2,0-78.2-19.4t-50.8-55.8q-17.8-36.4-17.8-86.4,0-50.4,17.8-86.6t50.8-55.6q33-19.4,78.2-19.4,44.8,0,77.8,19.4T-75-236.2q17.8,36.2,17.8,86.6,0,50-17.8,86.4T-125.8-7.4Q-158.8,12-203.6,12Zm0-62.4q23.6,0,41.4-11.8t27.4-34q9.6-22.2,9.6-53.4t-9.6-53.6q-9.6-22.4-27.4-34t-41.4-11.6q-24,0-41.6,11.6t-27.2,34q-9.6,22.4-9.6,53.6t9.6,53.4q9.6,22.2,27.2,34T-203.6-50.4ZM131.6-248.8q-25.6,0-44.6,11.4T57.6-203.6q-10.4,22.4-10.4,54,0,32,9.8,54.2T85.4-61.8Q104-50.4,129.2-50.4q18,0,32-5.4T187.6-74v-38.8H128.4v-60.8H250.8V-44Q227.2-15.2,196.6-1.6T129.2,12Q84,12,50-7.4T-2.6-63.2q-18.6-36.4-18.6-86.4t19-86.4q19-36.4,53.6-55.8t80.2-19.4q40.8,0,70,16t45.2,46.4l-52.8,36A75.844,75.844,0,0,0,167.4-239,69.209,69.209,0,0,0,131.6-248.8ZM438.4,12q-45.2,0-78.2-19.4T309.4-63.2q-17.8-36.4-17.8-86.4,0-50.4,17.8-86.6t50.8-55.6q33-19.4,78.2-19.4,44.8,0,77.8,19.4T567-236.2q17.8,36.2,17.8,86.6,0,50-17.8,86.4T516.2-7.4Q483.2,12,438.4,12Zm0-62.4q23.6,0,41.4-11.8t27.4-34q9.6-22.2,9.6-53.4t-9.6-53.6q-9.6-22.4-27.4-34t-41.4-11.6q-24,0-41.6,11.6t-27.2,34q-9.6,22.4-9.6,53.6t9.6,53.4q9.6,22.2,27.2,34T438.4-50.4Z" transform="translate(600 353)" fill="#fff"/>
  </g>
</svg>
